<?xml version="1.0" encoding="UTF-8" standalone="no"?>
<svg width="235px" height="56px" viewBox="0 0 235 56" version="1.1" xmlns="http://www.w3.org/2000/svg" xmlns:xlink="http://www.w3.org/1999/xlink" xmlns:sketch="http://www.bohemiancoding.com/sketch/ns">
    <!-- Generator: Sketch 3.2 (9961) - http://www.bohemiancoding.com/sketch -->
    <title>splash_logo_top_new_dark</title>
    <desc>Created with Sketch.</desc>
    <defs></defs>
    <g id="Assets" stroke="none" stroke-width="1" fill="none" fill-rule="evenodd" sketch:type="MSPage">
        <g id="splash_logo_top_new_dark" sketch:type="MSArtboardGroup">
            <g id="fieldlogs-+-Imported-Layers" sketch:type="MSLayerGroup" transform="translate(5.000000, 13.000000)">
                <g id="Imported-Layers" sketch:type="MSShapeGroup">
                    <path d="M15.0696855,15.7669781 C15.0696855,19.4636308 12.2146904,22.460294 8.69279777,22.460294 C5.17090519,22.460294 2.31591,19.4636308 2.31591,15.7669781 C2.31591,12.0699138 5.17090519,9.07325065 8.69279777,9.07325065 C8.93646428,9.07325065 9.1764062,9.08765372 9.41301559,9.11563685 L9.44359642,6.95682128 C9.19659739,6.93459939 8.9460698,6.92307692 8.69279777,6.92307692 C3.89199907,6.92307692 0,11.007584 0,16.0463978 C0,21.1633997 4.22662396,24.5384523 8.69279777,29.2307692 C13.1577954,24.5384523 17.3846154,21.1633997 17.3846154,16.0463978 C17.3846154,15.552578 17.3471735,15.0676058 17.274838,14.5947733 L14.9597122,14.5202888 C15.0322436,14.924398 15.0696855,15.3408527 15.0696855,15.7669781 Z" id="Fill-4" fill="#261C0E"></path>
                    <path d="M12.0936455,0.00022433331 C15.170507,-0.0187844937 18.2538033,1.17022832 20.6155743,3.57089367 C22.9756846,5.9717726 24.1681942,9.12980087 24.187291,12.2948774 L22.1441453,12.3076923 C22.1304455,9.67977536 21.1401124,7.05805231 19.1787507,5.06511562 C17.218842,3.07239252 14.6602914,2.08628291 12.1060999,2.10123368 L12.0936455,0.00022433331 Z M12.1048961,6.05699161 C13.6920457,6.0464877 15.2864802,6.59019499 16.5039973,7.87714258 C17.722128,9.164309 18.3317838,10.6097793 18.3418071,12.3076923 L20.4080268,12.2939059 C20.3945261,10.0307514 19.5790869,8.02091483 17.9557309,6.30461999 C16.333193,4.58854398 14.2077313,3.83191371 12.0936455,3.84635659 L12.1048961,5.71517691 L12.1048961,6.05699161 Z M14.0018207,10.5810734 C14.4801151,11.0901305 14.7159699,11.6361348 14.7196254,12.3076923 L16.6287625,12.2948415 C16.6235679,11.097438 16.1976266,10.0255876 15.3455085,9.11629045 C14.4920436,8.20927333 13.2047275,7.68370878 12.0936455,7.69241416 L12.1051892,9.74916253 C12.7270103,9.74522439 13.5231416,10.0718089 14.0018207,10.5810734 Z" id="Path" fill="#261C0E"></path>
                    <ellipse id="Oval-1" fill="#DD8B12" cx="9.07023411" cy="15.3846154" rx="3.02341137" ry="3.07692308"></ellipse>
                </g>
                <path d="M40.9672241,17.8461538 L48.3745819,17.8461538 C48.7525084,17.8461538 49.0548495,17.8461538 49.319398,17.6538462 C49.5461538,17.5 49.6973244,17.1923077 49.6973244,16.7692308 C49.6973244,16.3461538 49.5461538,16.0384615 49.319398,15.8846154 C49.0548495,15.6923077 48.7525084,15.6923077 48.3745819,15.6923077 L40.9672241,15.6923077 L40.9672241,7.03846154 L49.5839465,7.03846154 C49.9618729,7.03846154 50.264214,7.03846154 50.5287625,6.84615385 C50.7555184,6.69230769 50.906689,6.38461538 50.906689,5.96153846 C50.906689,5.53846154 50.7555184,5.23076923 50.5287625,5.07692308 C50.264214,4.88461538 49.9618729,4.88461538 49.5839465,4.88461538 L39.7200669,4.88461538 C38.8886288,4.88461538 38.548495,5.26923077 38.548495,6 L38.548495,28.6153846 C38.548495,29 38.548495,29.3461538 38.7374582,29.6153846 C38.9264214,29.8846154 39.2665552,30 39.7578595,30 C40.2491639,30 40.5892977,29.8846154 40.7782609,29.6153846 C40.9672241,29.3461538 40.9672241,29 40.9672241,28.6153846 L40.9672241,17.8461538 Z M59.7879597,6 C59.7879597,5.61538462 59.7879597,5.26923077 59.5989965,5 C59.4100333,4.73076923 59.0698995,4.61538462 58.5785952,4.61538462 C58.0872908,4.61538462 57.7471571,4.73076923 57.5581938,5 C57.3692306,5.26923077 57.3692306,5.61538462 57.3692306,6 L57.3692306,28.6153846 C57.3692306,29 57.3692306,29.3461538 57.5581938,29.6153846 C57.7471571,29.8846154 58.0872908,30 58.5785952,30 C59.0698995,30 59.4100333,29.8846154 59.5989965,29.6153846 C59.7879597,29.3461538 59.7879597,29 59.7879597,28.6153846 L59.7879597,6 Z M70.936789,7.03846154 L78.9110365,7.03846154 C79.2889629,7.03846154 79.5913041,7.03846154 79.8558526,6.84615385 C80.0826084,6.69230769 80.233779,6.38461538 80.233779,5.96153846 C80.233779,5.53846154 80.0826084,5.23076923 79.8558526,5.07692308 C79.5913041,4.88461538 79.2889629,4.88461538 78.9110365,4.88461538 L69.7274245,4.88461538 C68.8581937,4.88461538 68.5558526,5.23076923 68.5558526,6.07692308 L68.5558526,28.5769231 C68.5558526,29.3846154 68.8581937,29.7692308 69.7274245,29.7692308 L80.0826084,29.7692308 C80.4605349,29.7692308 80.762876,29.7692308 81.0274245,29.5769231 C81.2541803,29.4230769 81.4053509,29.1153846 81.4053509,28.6923077 C81.4053509,28.2692308 81.2541803,27.9615385 81.0274245,27.8076923 C80.762876,27.6153846 80.4605349,27.6153846 80.0826084,27.6153846 L70.936789,27.6153846 L70.936789,17.3461538 L77.5127088,17.3461538 C77.8906352,17.3461538 78.1929763,17.3461538 78.4575248,17.1538462 C78.6842807,17 78.8354512,16.6923077 78.8354512,16.2692308 C78.8354512,15.8461538 78.6842807,15.5384615 78.4575248,15.3846154 C78.1929763,15.1923077 77.8906352,15.1923077 77.5127088,15.1923077 L70.936789,15.1923077 L70.936789,7.03846154 Z M90.7023407,27.6153846 L90.7023407,6 C90.7023407,5.61538462 90.7023407,5.26923077 90.5133775,5 C90.3244143,4.73076923 89.9842805,4.61538462 89.4929762,4.61538462 C89.0016718,4.61538462 88.6615381,4.73076923 88.4725749,5 C88.2836116,5.26923077 88.2836116,5.61538462 88.2836116,6 L88.2836116,28.5769231 C88.2836116,29.3846154 88.5481601,29.7692308 89.4551836,29.7692308 L99.5080264,29.7692308 C99.8859528,29.7692308 100.188294,29.7692308 100.452842,29.5769231 C100.679598,29.4230769 100.830769,29.1153846 100.830769,28.6923077 C100.830769,28.2692308 100.679598,27.9615385 100.452842,27.8076923 C100.188294,27.6153846 99.8859528,27.6153846 99.5080264,27.6153846 L90.7023407,27.6153846 Z M127.776923,17.1538462 C127.776923,12.1923077 125.925083,8.92307692 123.241805,7.03846154 C120.634113,5.19230769 117.308361,4.61538462 113.188963,4.61538462 C111.072575,4.61538462 109.220735,4.76923077 108.162541,4.96153846 C106.990969,5.19230769 106.688628,5.57692308 106.688628,6.65384615 L106.688628,28.0384615 C106.688628,28.8846154 106.802006,29.3846154 107.633444,29.6153846 C108.42709,29.8461538 110.316722,30 112.43311,30 C115.72107,30 119.651504,29.6538462 122.826086,27.5769231 C125.547157,25.8076923 127.776923,22.6153846 127.776923,17.1538462 L127.776923,17.1538462 Z M109.107357,7 C109.107357,7 110.694648,6.73076923 113.188963,6.73076923 C116.779264,6.73076923 119.538127,7.30769231 121.692307,8.96153846 C123.657525,10.4615385 125.282608,13.1153846 125.282608,17.4230769 C125.282608,27.4230769 116.628093,27.8461538 112.886622,27.8461538 C110.543478,27.8461538 109.107357,27.6923077 109.107357,27.6923077 L109.107357,7 Z" id="FIELD" fill="#261C0E" sketch:type="MSShapeGroup"></path>
                <path d="M141.25,28.0769231 L141.25,5.15384615 C141.25,4.92307692 141.25,4.69230769 141.135473,4.53846154 C141.020946,4.34615385 140.753716,4.26923077 140.486486,4.26923077 C140.219257,4.26923077 139.952027,4.34615385 139.8375,4.53846154 C139.722973,4.69230769 139.722973,4.92307692 139.722973,5.15384615 L139.722973,28.6538462 C139.722973,29.1538462 139.913851,29.4230769 140.486486,29.4230769 L150.679392,29.4230769 C150.908446,29.4230769 151.1375,29.4230769 151.328378,29.3076923 C151.519257,29.1923077 151.595608,29 151.595608,28.7307692 C151.595608,28.5 151.519257,28.3076923 151.328378,28.1923077 C151.1375,28.0769231 150.908446,28.0769231 150.679392,28.0769231 L141.25,28.0769231 Z M154.344257,16.9615385 C154.344257,24.8076923 159.039865,30 166.751351,30 C174.501013,30 179.272973,24.8076923 179.272973,16.9615385 C179.272973,9.11538462 174.577365,3.84615385 166.865878,3.84615385 C159.116216,3.84615385 154.344257,9.11538462 154.344257,16.9615385 L154.344257,16.9615385 Z M155.985811,16.9615385 C155.985811,9.53846154 160.299662,5.23076923 166.751351,5.23076923 C173.241216,5.23076923 177.631419,9.53846154 177.631419,16.9615385 C177.631419,24.3846154 173.317567,28.6153846 166.865878,28.6153846 C160.376013,28.6153846 155.985811,24.3846154 155.985811,16.9615385 L155.985811,16.9615385 Z M205.881419,21.3076923 C205.881419,21.0769231 205.881419,20.8461538 205.766892,20.6923077 C205.652365,20.5 205.385135,20.4230769 205.117905,20.4230769 C204.850675,20.4230769 204.583446,20.5 204.468919,20.6923077 C204.354392,20.8461538 204.354392,21.0769231 204.354392,21.3076923 L204.354392,27 C204.354392,27 201.643919,28.4230769 197.864527,28.4230769 C191.489189,28.4230769 186.259121,24.4230769 186.259121,16.5769231 C186.259121,8.19230769 192.214527,5.30769231 197.48277,5.30769231 C199.429729,5.30769231 201.185811,5.69230769 202.445608,6.19230769 C204.125338,6.84615385 204.736148,7.57692308 205.194256,7.57692308 C205.537838,7.57692308 205.881419,7.15384615 205.881419,6.84615385 C205.881419,6.53846154 205.576013,6.15384615 204.54527,5.57692308 C202.636486,4.5 200.231419,3.92307692 197.673648,3.92307692 C191.451013,3.92307692 184.617567,7.38461538 184.617567,16.7692308 C184.617567,25.4615385 190.458446,29.8076923 197.826351,29.8076923 C200.002365,29.8076923 201.911148,29.4230769 203.781756,28.7692308 C205.614189,28.1153846 205.881419,27.7692308 205.881419,26.8076923 L205.881419,21.3076923 Z M213.745608,9.73076923 C213.745608,7.15384615 215.959797,5.38461538 219.052027,5.38461538 C222.067905,5.38461538 223.251351,7.03846154 224.05304,7.03846154 C224.472973,7.03846154 224.702027,6.61538462 224.702027,6.34615385 C224.702027,5.53846154 222.220608,4 218.975675,4 C214.852702,4 212.218581,6.46153846 212.218581,9.76923077 C212.218581,14.4230769 217.410473,16.0769231 220.235473,17.8461538 C222.106081,19 223.747635,20.6923077 223.747635,23.2692308 C223.747635,26.5384615 221.151689,28.5 217.830405,28.5 C214.203716,28.5 213.058446,26.1153846 212.180405,26.1153846 C211.836824,26.1153846 211.455067,26.4615385 211.455067,26.8461538 C211.455067,27.2692308 212.065878,27.9230769 212.905743,28.4615385 C214.318243,29.3846154 216.074324,29.8846154 217.868581,29.8846154 C221.724324,29.8846154 225.274662,27.5769231 225.274662,23.2307692 C225.274662,19.9615385 223.289527,17.8846154 220.808108,16.4230769 C218.13581,14.8461538 213.745608,13.3461538 213.745608,9.73076923 L213.745608,9.73076923 Z" id="logs" fill="#261C0E" sketch:type="MSShapeGroup"></path>
            </g>
        </g>
    </g>
</svg>