<?xml version="1.0" encoding="UTF-8" standalone="no"?>
<svg width="235px" height="56px" viewBox="0 0 235 56" version="1.1" xmlns="http://www.w3.org/2000/svg" xmlns:xlink="http://www.w3.org/1999/xlink" xmlns:sketch="http://www.bohemiancoding.com/sketch/ns">
    <!-- Generator: Sketch 3.1.1 (8761) - http://www.bohemiancoding.com/sketch -->
    <title>splash_logo_top_new</title>
    <desc>Created with Sketch.</desc>
    <defs>
        <filter x="-50%" y="-50%" width="200%" height="200%" filterUnits="objectBoundingBox" id="filter-1">
            <feOffset dx="0" dy="1" in="SourceAlpha" result="shadowOffsetOuter1"></feOffset>
            <feGaussianBlur stdDeviation="0" in="shadowOffsetOuter1" result="shadowBlurOuter1"></feGaussianBlur>
            <feColorMatrix values="0 0 0 0 0   0 0 0 0 0   0 0 0 0 0  0 0 0 0.35 0" in="shadowBlurOuter1" type="matrix" result="shadowMatrixOuter1"></feColorMatrix>
            <feMerge>
                <feMergeNode in="shadowMatrixOuter1"></feMergeNode>
                <feMergeNode in="SourceGraphic"></feMergeNode>
            </feMerge>
        </filter>
    </defs>
    <g id="Assets" stroke="none" stroke-width="1" fill="none" fill-rule="evenodd" sketch:type="MSPage">
        <g id="splash_logo_top_new" sketch:type="MSArtboardGroup">
            <g id="fieldlogs-+-Imported-Layers-2" sketch:type="MSLayerGroup" transform="translate(18.000000, 4.000000)">
                <text id="Fieldlogs" sketch:type="MSTextLayer" font-family="Corbel" font-size="38" font-weight="normal" fill="#FFFFFF">
                    <tspan x="58" y="37">Fieldlogs</tspan>
                </text>
                <g id="Imported-Layers" sketch:type="MSShapeGroup">
                    <path d="M48,41.44632 C48,45.0624 45.0624,48 41.44584,48 L6.55416,48 C2.9376,48 0,45.0624 0,41.44632 L0,6.55368 C0,2.9376 2.9376,0 6.55416,0 L41.44584,0 C45.0624,0 48,2.9376 48,6.55368 L48,41.44632" id="Fill-1" fill="#DD8B12"></path>
                    <path d="M30.2036467,23.3077193 C30.2036467,27.6162318 26.7549136,31.1088944 22.500592,31.1088944 C18.2462704,31.1088944 14.7975373,27.6162318 14.7975373,23.3077193 C14.7975373,18.9987271 18.2462704,15.5060645 22.500592,15.5060645 C22.7949325,15.5060645 23.0847739,15.5228516 23.3705896,15.5554664 L23.4075302,13.0393296 C23.1091641,13.0134296 22.8065356,13 22.500592,13 C16.7013971,13 12,17.7605634 12,23.6333878 C12,29.5973417 17.1056121,33.5310237 22.500592,39 C27.8941511,33.5310237 33,29.5973417 33,23.6333878 C33,23.0578323 32.9547715,22.4925888 32.8673928,21.9414944 L30.0708027,21.8546815 C30.1584182,22.3256777 30.2036467,22.8110628 30.2036467,23.3077193 Z M26,5.00025518 C29.5618757,4.97863264 33.1312004,6.33113471 35.8652638,9.06189154 C38.5974048,11.7928913 39.977893,15.3851485 40,18.985423 L37.6347877,19 C37.6189283,16.0107445 36.4724864,13.0285345 34.2019498,10.761569 C31.9330953,8.49484649 28.9712334,7.37314682 26.0144176,7.39015331 L26,5.00025518 Z M26.0135315,11.51134 C27.9224524,11.4994083 29.8350637,12.2240131 31.2994145,13.6859001 C32.7645033,15.1480358 33.5028293,17.0712835 33.5148846,19 L36,18.9843396 C35.9837622,16.4135462 34.9979334,13.8492159 33.0454657,11.8996188 C31.0939822,9.95027039 28.5426856,8.98379924 26,9.00020539 L26.0135315,11.51134 L26.0135315,11.51134 Z M26.0132124,16.2050872 C26.7249185,16.2008653 27.4397076,16.4708462 27.9875804,17.0168074 C28.5350128,17.5625465 28.8107108,18.2800511 28.8148947,19 L31,18.9862232 C30.9940544,17.7025365 30.5007927,16.4212941 29.5254999,15.4464744 C28.5486656,14.474099 27.2716903,13.9907999 26,14.0001326 L26.0132124,16.2050872 L26.0132124,16.2050872 Z" id="Fill-4" fill="#FFFFFF" filter="url(#filter-1)"></path>
                </g>
            </g>
        </g>
    </g>
</svg>