<?xml version="1.0" encoding="UTF-8" standalone="no"?>
<svg width="235px" height="56px" viewBox="0 0 235 56" version="1.1" xmlns="http://www.w3.org/2000/svg" xmlns:xlink="http://www.w3.org/1999/xlink" xmlns:sketch="http://www.bohemiancoding.com/sketch/ns">
    <!-- Generator: Sketch 3.1.1 (8761) - http://www.bohemiancoding.com/sketch -->
    <title>splash_logo_top</title>
    <desc>Created with Sketch.</desc>
    <defs></defs>
    <g id="Assets" stroke="none" stroke-width="1" fill="none" fill-rule="evenodd" sketch:type="MSPage">
        <g id="splash_logo_top" sketch:type="MSArtboardGroup">
            <g id="Imported-Layers-+-Imported-Layers" sketch:type="MSLayerGroup" transform="translate(15.000000, 9.000000)">
                <g id="Imported-Layers" transform="translate(0.000000, -0.381588)" fill="#000000" sketch:type="MSShapeGroup">
                    <path d="M20.7355446,18.2303904 C20.8384867,18.773661 20.8917139,19.3349779 20.8917139,19.9084153 C20.8917139,24.8824258 16.846441,28.9148032 11.8560461,28.9148032 C6.86646182,28.9148032 2.82091867,24.8824258 2.82091867,19.9084153 C2.82091867,14.9335966 6.86646182,10.9004113 11.8560461,10.9004113 C12.2013479,10.9004113 12.5417863,10.9192655 12.8762806,10.9575126 L12.9203214,8.05207846 C12.569886,8.02245041 12.2145872,8.006559 11.8560461,8.006559 C5.05457293,8.006559 -0.460529384,13.5036393 -0.460529384,20.2841528 C-0.460529384,27.1694418 5.52848482,31.7116909 11.8560461,38.026236 C18.183067,31.7116909 24.1710005,27.1694418 24.1710005,20.2841528 C24.1710005,19.6196765 24.1188539,18.9665127 24.0159119,18.3303177 L20.7355446,18.2303904" id="Fill-3"></path>
                    <path d="M14.9341768,-0.460225028 C18.8509692,-0.485603439 22.775987,1.07612389 25.7820827,4.22850448 C28.7866363,7.38252239 30.3047211,11.5298458 30.3288829,15.687266 L27.7278839,15.7039121 C27.7104051,12.2524483 26.4503896,8.80917108 23.9532352,6.19219308 C21.4586513,3.57385065 18.2011693,2.27927884 14.9501133,2.29865376 L14.9341768,-0.460225028 L14.9341768,-0.460225028 L14.9341768,-0.460225028 L14.9341768,-0.460225028 Z M14.9493928,7.63386024 C17.0058765,7.62109117 19.0670023,8.40182855 20.645342,9.97737536 C22.2234237,11.5526616 23.019041,13.6256809 23.0324517,15.7039121 L25.7104711,15.6872341 C25.692934,12.9171278 24.6306495,10.1532758 22.5269704,8.05185181 C20.4230333,5.95120961 17.6738339,4.90935778 14.9341768,4.9278599 L14.9493928,7.63386024 L14.9493928,7.63386024 L14.9493928,7.63386024 L14.9493928,7.63386024 Z M14.9502693,12.2623397 C15.8261226,12.2564831 16.7072523,12.5892465 17.3818177,13.2616948 C18.0558554,13.9338769 18.3956443,14.8174303 18.4003929,15.7039121 L21.0920592,15.687407 C21.0838811,14.105849 20.4768514,12.528018 19.2759825,11.3274076 C18.0730032,10.1299917 16.4998966,9.53474455 14.9341768,9.54619161 L14.9502693,12.2623397 L14.9502693,12.2623397 Z" id="Fill-4"></path>
                    <path d="M8.59892105,14.2217218 L15.8161975,21.3994218 L16.4736474,24.9407358 L12.9723918,24.2266882 L5.75511528,17.0489881 C5.36833544,15.4523787 6.99184953,13.8376602 8.59892105,14.2217218 C8.59892105,14.2217218 6.99184953,13.8376602 8.59892105,14.2217218 L8.59892105,14.2217218 L8.59892105,14.2217218 Z M14.6534753,21.8832231 C14.0438299,21.7226463 13.2536641,22.4978776 13.4162881,23.0953682 L14.9341768,23.4012652 L14.6534753,21.8832231 L14.6534753,21.8832231 Z" id="Fill-5"></path>
                </g>
                <g id="Imported-Layers" transform="translate(41.335442, 4.000000)" sketch:type="MSShapeGroup">
                    <path d="M93.9099422,23.9964996 C93.6568037,25.1778129 93.5724241,26.0216081 93.5724241,26.8654034 C93.5724241,29.7343072 94.9224965,31.5062771 98.3820569,31.5062771 C99.9008884,31.5062771 101.082202,31.2531386 101.841617,31 L102.094756,26.0216081 C101.757238,26.1059877 101.588479,26.1059877 101.33534,26.1059877 C100.913443,26.1059877 100.491545,25.8528491 100.491545,25.0512436 C100.491545,24.8402948 100.491545,24.6715358 100.575925,24.2496382 L105.132419,1.63592603 L98.3820569,1.63592603 L93.9099422,23.9964996 Z M113.73913,31.5062771 C119.561317,31.5062771 125.721022,26.3591262 125.721022,18.1743125 C125.721022,12.9427821 122.345841,9.39884213 117.28307,9.39884213 C111.460883,9.39884213 105.301178,14.545993 105.301178,22.7308068 C105.301178,27.9623372 108.676359,31.5062771 113.73913,31.5062771 L113.73913,31.5062771 Z M116.523654,14.7991316 C118.126865,14.7991316 118.886281,16.149204 118.886281,18.258692 C118.886281,22.8151863 116.945552,26.1059877 114.498546,26.1059877 C112.895335,26.1059877 112.135919,24.7559153 112.135919,22.6464272 C112.135919,18.089933 114.076648,14.7991316 116.523654,14.7991316 L116.523654,14.7991316 Z M144.453276,9.90511927 L143.525102,12.0146073 L143.440722,12.0146073 C142.681306,10.4113964 140.909336,9.39884213 139.137367,9.39884213 C133.315179,9.39884213 128.168029,15.3054087 128.168029,22.8151863 C128.168029,27.7935781 130.783794,30.1562048 134.327734,30.1562048 C136.521601,30.1562048 138.46233,29.22803 140.31868,27.45606 L140.403059,27.45606 L139.390505,30.7468614 C138.54671,33.1938676 136.859119,34.4595604 134.412113,34.4595604 C132.555764,34.4595604 130.783794,33.5313857 129.180583,32.3500724 L126.311679,36.8221871 C128.843065,38.8472956 131.880728,39.7754704 134.243354,39.7754704 C140.403059,39.7754704 144.579846,36.653428 145.887728,30.1562048 L149.937945,9.90511927 L144.453276,9.90511927 Z M137.027878,24.6715358 C135.930945,24.6715358 135.171529,23.8277406 135.171529,21.971391 C135.171529,17.7524149 137.196637,14.8835111 139.643644,14.8835111 C140.403059,14.8835111 141.331234,15.3897883 141.837511,16.4867221 L140.740577,22.3089091 C139.643644,24.2496382 138.209192,24.6715358 137.027878,24.6715358 L137.027878,24.6715358 Z M149.853566,27.3716805 C151.709915,30.1562048 155.085096,31.5062771 157.532103,31.5062771 C162.848012,31.5062771 166.645091,28.6373734 166.645091,24.4183972 C166.645091,21.2963549 164.451223,19.6087644 162.426115,18.5118306 C160.822904,17.5836559 159.050934,17.0773787 159.050934,15.8960654 C159.050934,15.0522702 159.894729,14.377234 161.244802,14.377234 C162.594874,14.377234 163.776187,15.2210292 164.788741,16.2335835 L168.417061,12.7740231 C166.645091,10.9176735 164.282464,9.39884213 161.244802,9.39884213 C156.519548,9.39884213 152.72247,12.436505 152.72247,16.4867221 C152.72247,19.2712463 154.705388,21.2119753 156.772687,22.3932887 C158.966554,23.6589815 160.316627,24.0808791 160.316627,25.1778129 C160.316627,26.0216081 159.219693,26.6122648 157.954,26.6122648 C156.688307,26.6122648 155.253855,25.9372286 153.735024,24.1652586 L149.853566,27.3716805 Z" id="logs" fill="#180000"></path>
                    <path d="M0.0969337979,31 L6.84729563,31 L8.9567837,20.5369392 L17.4791155,20.5369392 L18.5760493,14.8835111 L10.0537175,14.8835111 L11.1506513,9.23008309 L21.1918145,9.23008309 L22.2887483,3.57665505 L5.58160279,3.57665505 L0.0969337979,31 Z M21.107435,31 L27.8577968,31 L32.076773,9.90511927 L25.3264111,9.90511927 L21.107435,31 Z M29.7985259,7.20497454 C32.076773,7.20497454 33.848743,5.6017636 33.848743,3.40789601 C33.848743,1.38278746 32.076773,0.285853659 30.304803,0.285853659 C28.0265559,0.285853659 26.2545859,2.05782364 26.2545859,4.08293219 C26.2545859,6.19242026 28.0265559,7.20497454 29.7985259,7.20497454 L29.7985259,7.20497454 Z M33.5112249,22.3932887 C33.5112249,28.0467167 37.1395444,31.5062771 42.2866953,31.5062771 C45.7462557,31.5062771 48.4464004,30.4937229 50.1339909,29.3124095 L47.7713642,25.0934334 C46.8431895,25.7684696 45.4087376,26.4435058 44.2274243,26.4435058 C41.7804181,26.4435058 39.9240686,25.2621924 39.8396891,22.4776682 L51.2309247,22.4776682 C51.5684428,21.8870115 52.412238,19.5243849 52.412238,17.4148968 C52.412238,13.0271616 50.5558885,9.39884213 45.4087376,9.39884213 C39.7553096,9.39884213 33.5112249,14.6303726 33.5112249,22.3932887 L33.5112249,22.3932887 Z M40.3459662,18.4274511 C41.274141,15.7273064 42.9617314,14.545993 44.5649424,14.545993 C46.3369124,14.545993 46.927569,15.6429268 46.927569,17.0773787 C46.927569,17.5836559 46.8431895,18.089933 46.75881,18.4274511 L40.3459662,18.4274511 Z M55.3655213,23.9964996 C55.1123827,25.1778129 55.0280032,26.0216081 55.0280032,26.8654034 C55.0280032,29.7343072 56.3780756,31.5062771 59.837636,31.5062771 C61.3564674,31.5062771 62.5377808,31.2531386 63.2971965,31 L63.550335,26.0216081 C63.2128169,26.1059877 63.0440579,26.1059877 62.7909193,26.1059877 C62.3690217,26.1059877 61.9471241,25.8528491 61.9471241,25.0512436 C61.9471241,24.8402948 61.9471241,24.6715358 62.0315036,24.2496382 L66.5879979,1.63592603 L59.837636,1.63592603 L55.3655213,23.9964996 Z M82.1982096,11.7614688 L82.1138301,11.7614688 C81.3544144,10.3270169 79.835583,9.39884213 78.063613,9.39884213 C72.2414259,9.39884213 66.8411364,15.7273064 66.8411364,23.743361 C66.8411364,28.7217529 69.035004,31.5062771 72.747703,31.5062771 C74.7728116,31.5062771 77.2198177,30.3249638 79.0761672,28.3842348 L79.1605468,28.3842348 L79.1605468,31 L84.6452158,31 L90.5517824,1.63592603 L83.8014205,1.63592603 L82.6201072,7.7956312 L82.1982096,11.7614688 Z M75.7853659,26.0216081 C74.6040525,26.0216081 73.8446368,25.0934334 73.8446368,22.8995658 C73.8446368,18.1743125 76.1228839,14.8835111 78.5698901,14.8835111 C79.3293058,14.8835111 80.3418601,15.3897883 80.8481372,16.4867221 L79.4980649,23.2370839 C78.3167515,25.515331 76.8822997,26.0216081 75.7853659,26.0216081 L75.7853659,26.0216081 Z" id="Field" fill="#DD8B12"></path>
                </g>
            </g>
        </g>
    </g>
</svg>