<?xml version="1.0" encoding="UTF-8" standalone="no"?>
<svg width="235px" height="56px" viewBox="0 0 235 56" version="1.1" xmlns="http://www.w3.org/2000/svg" xmlns:xlink="http://www.w3.org/1999/xlink" xmlns:sketch="http://www.bohemiancoding.com/sketch/ns">
    <!-- Generator: Sketch 3.2 (9961) - http://www.bohemiancoding.com/sketch -->
    <title>splash_logo_top_new</title>
    <desc>Created with Sketch.</desc>
    <defs></defs>
    <g id="Assets" stroke="none" stroke-width="1" fill="none" fill-rule="evenodd" sketch:type="MSPage">
        <g id="splash_logo_top_new" sketch:type="MSArtboardGroup">
            <g id="fieldlogs-+-Imported-Layers" sketch:type="MSLayerGroup" transform="translate(9.000000, 16.000000)">
                <g id="Imported-Layers" transform="translate(0.000000, 1.000000)" sketch:type="MSShapeGroup">
                    <path d="M11.2689241,11.3432119 C11.2689241,13.9946042 9.13399411,16.143935 6.50036647,16.143935 C3.86673883,16.143935 1.7318088,13.9946042 1.7318088,11.3432119 C1.7318088,8.69152439 3.86673883,6.54219357 6.50036647,6.54219357 C6.68257727,6.54219357 6.86200286,6.55252405 7.03893644,6.5725947 L7.0618044,5.02420285 C6.87710159,5.00826439 6.68976016,5 6.50036647,5 C2.91038869,5 0,7.92957746 0,11.5436232 C0,15.2137488 3.16061703,17.6344761 6.50036647,21 C9.83923638,17.6344761 13,15.2137488 13,11.5436232 C13,11.1894352 12.9720014,10.8415931 12.9179099,10.5024581 L11.1866874,10.4490347 C11.2409255,10.7388786 11.2689241,11.0375771 11.2689241,11.3432119 Z M9,0.000164043733 C11.2897772,-0.013736161 13.5843431,0.855729457 15.3419553,2.61121599 C17.0983317,4.36685871 17.9857883,6.67616689 18,8.99062908 L16.4795064,9 C16.469311,7.07833574 15.7323127,5.16120075 14.272682,3.7038658 C12.8141327,2.24668703 10.9100786,1.52559438 9.00926848,1.53652713 L9,0.000164043733 Z M9.00811888,4.56768496 C10.1534714,4.56023673 11.3040811,4.94577463 12.1826915,5.85833747 C13.0617448,6.77105548 13.5016976,7.79602533 13.5089308,9 L15,8.9902242 C14.9902573,7.38544188 14.4018029,5.96028506 13.2303223,4.74327599 C12.0594321,3.5264221 10.5256114,2.98990245 9,3.00014376 L9.00811888,4.32530726 L9.00811888,4.56768496 Z M10.2622664,7.87769768 C10.5786602,8.20858482 10.7346792,8.56348765 10.7370973,9 L12,8.99164699 C11.9965637,8.21333468 11.7148017,7.51663191 11.1511218,6.92558879 C10.586551,6.33602767 9.73498567,5.99441071 9,6.0000692 L9.00763621,7.33695565 C9.41897365,7.33439585 9.945618,7.54667581 10.2622664,7.87769768 Z" id="Fill-4" fill="#ECECEC"></path>
                    <circle id="Oval-1" fill="#DD8B12" cx="6.5" cy="11.5" r="2.5"></circle>
                </g>
                <path d="M30.8444444,14.2123457 L38.297284,14.2123457 C38.6775309,14.2123457 38.9817284,14.2123457 39.2479012,14.0222222 C39.4760494,13.8701235 39.6281481,13.5659259 39.6281481,13.1476543 C39.6281481,12.7293827 39.4760494,12.4251852 39.2479012,12.2730864 C38.9817284,12.082963 38.6775309,12.082963 38.297284,12.082963 L30.8444444,12.082963 L30.8444444,3.52740741 L39.5140741,3.52740741 C39.894321,3.52740741 40.1985185,3.52740741 40.4646914,3.33728395 C40.6928395,3.18518519 40.8449383,2.88098765 40.8449383,2.46271605 C40.8449383,2.04444444 40.6928395,1.74024691 40.4646914,1.58814815 C40.1985185,1.39802469 39.894321,1.39802469 39.5140741,1.39802469 L29.5896296,1.39802469 C28.7530864,1.39802469 28.4108642,1.7782716 28.4108642,2.50074074 L28.4108642,24.8592593 C28.4108642,25.2395062 28.4108642,25.5817284 28.6009877,25.8479012 C28.7911111,26.1140741 29.1333333,26.2281481 29.6276543,26.2281481 C30.1219753,26.2281481 30.4641975,26.1140741 30.654321,25.8479012 C30.8444444,25.5817284 30.8444444,25.2395062 30.8444444,24.8592593 L30.8444444,14.2123457 Z M50.7807406,2.50074074 C50.7807406,2.12049383 50.7807406,1.7782716 50.5906172,1.51209877 C50.4004937,1.24592593 50.0582715,1.13185185 49.5639505,1.13185185 C49.0696295,1.13185185 48.7274073,1.24592593 48.5372838,1.51209877 C48.3471604,1.7782716 48.3471604,2.12049383 48.3471604,2.50074074 L48.3471604,24.8592593 C48.3471604,25.2395062 48.3471604,25.5817284 48.5372838,25.8479012 C48.7274073,26.1140741 49.0696295,26.2281481 49.5639505,26.2281481 C50.0582715,26.2281481 50.4004937,26.1140741 50.5906172,25.8479012 C50.7807406,25.5817284 50.7807406,25.2395062 50.7807406,24.8592593 L50.7807406,2.50074074 Z M62.9980245,3.52740741 L71.0212343,3.52740741 C71.4014812,3.52740741 71.7056788,3.52740741 71.9718516,3.33728395 C72.1999998,3.18518519 72.3520985,2.88098765 72.3520985,2.46271605 C72.3520985,2.04444444 72.1999998,1.74024691 71.9718516,1.58814815 C71.7056788,1.39802469 71.4014812,1.39802469 71.0212343,1.39802469 L61.7812343,1.39802469 C60.9066664,1.39802469 60.6024689,1.74024691 60.6024689,2.57679012 L60.6024689,24.8212346 C60.6024689,25.6197531 60.9066664,26 61.7812343,26 L72.1999998,26 C72.5802467,26 72.8844442,26 73.150617,25.8098765 C73.3787652,25.6577778 73.530864,25.3535802 73.530864,24.9353086 C73.530864,24.517037 73.3787652,24.2128395 73.150617,24.0607407 C72.8844442,23.8706173 72.5802467,23.8706173 72.1999998,23.8706173 L62.9980245,23.8706173 L62.9980245,13.7180247 L69.6143207,13.7180247 C69.9945677,13.7180247 70.2987652,13.7180247 70.564938,13.5279012 C70.7930862,13.3758025 70.9451849,13.0716049 70.9451849,12.6533333 C70.9451849,12.2350617 70.7930862,11.9308642 70.564938,11.7787654 C70.2987652,11.588642 69.9945677,11.588642 69.6143207,11.588642 L62.9980245,11.588642 L62.9980245,3.52740741 Z M83.8849379,23.8706173 L83.8849379,2.50074074 C83.8849379,2.12049383 83.8849379,1.7782716 83.6948145,1.51209877 C83.504691,1.24592593 83.1624688,1.13185185 82.6681478,1.13185185 C82.1738268,1.13185185 81.8316046,1.24592593 81.6414811,1.51209877 C81.4513577,1.7782716 81.4513577,2.12049383 81.4513577,2.50074074 L81.4513577,24.8212346 C81.4513577,25.6197531 81.7175305,26 82.6301231,26 L92.744691,26 C93.1249379,26 93.4291354,26 93.6953083,25.8098765 C93.9234564,25.6577778 94.0755552,25.3535802 94.0755552,24.9353086 C94.0755552,24.517037 93.9234564,24.2128395 93.6953083,24.0607407 C93.4291354,23.8706173 93.1249379,23.8706173 92.744691,23.8706173 L83.8849379,23.8706173 Z M122.18716,13.5279012 C122.18716,8.62271605 120.32395,5.39061728 117.624197,3.52740741 C115.000493,1.70222222 111.654321,1.13185185 107.509629,1.13185185 C105.380246,1.13185185 103.517037,1.28395062 102.452345,1.47407407 C101.27358,1.70222222 100.969382,2.08246914 100.969382,3.14716049 L100.969382,24.2888889 C100.969382,25.1254321 101.083456,25.6197531 101.92,25.8479012 C102.718518,26.0760494 104.619753,26.2281481 106.749135,26.2281481 C110.057283,26.2281481 114.011851,25.8859259 117.205925,23.8325926 C119.943703,22.0834568 122.18716,18.9274074 122.18716,13.5279012 L122.18716,13.5279012 Z M103.402962,3.48938272 C103.402962,3.48938272 105,3.22320988 107.509629,3.22320988 C111.121975,3.22320988 113.897777,3.79358025 116.065185,5.42864198 C118.042469,6.91160494 119.67753,9.53530864 119.67753,13.7940741 C119.67753,23.6804938 110.969876,24.0987654 107.205432,24.0987654 C104.847901,24.0987654 103.402962,23.9466667 103.402962,23.9466667 L103.402962,3.48938272 Z" id="FIELD" fill="#FFFFFF" sketch:type="MSShapeGroup"></path>
                <path d="M136.236049,24.6691358 L136.236049,2.00641975 C136.236049,1.7782716 136.236049,1.55012346 136.121975,1.39802469 C136.007901,1.20790123 135.741728,1.13185185 135.475556,1.13185185 C135.209383,1.13185185 134.94321,1.20790123 134.829136,1.39802469 C134.715062,1.55012346 134.715062,1.7782716 134.715062,2.00641975 L134.715062,25.2395062 C134.715062,25.7338272 134.905185,26 135.475556,26 L145.628148,26 C145.856296,26 146.084444,26 146.274568,25.8859259 C146.464691,25.7718519 146.540741,25.5817284 146.540741,25.3155556 C146.540741,25.0874074 146.464691,24.897284 146.274568,24.7832099 C146.084444,24.6691358 145.856296,24.6691358 145.628148,24.6691358 L136.236049,24.6691358 Z M150.278518,13.68 C150.278518,21.437037 154.955555,26.5703704 162.636543,26.5703704 C170.355555,26.5703704 175.108642,21.437037 175.108642,13.68 C175.108642,5.92296296 170.431605,0.713580247 162.750617,0.713580247 C155.031605,0.713580247 150.278518,5.92296296 150.278518,13.68 L150.278518,13.68 Z M151.91358,13.68 C151.91358,6.34123457 156.21037,2.08246914 162.636543,2.08246914 C169.100741,2.08246914 173.47358,6.34123457 173.47358,13.68 C173.47358,21.0187654 169.17679,25.2014815 162.750617,25.2014815 C156.28642,25.2014815 151.91358,21.0187654 151.91358,13.68 L151.91358,13.68 Z M202.611852,17.9767901 C202.611852,17.748642 202.611852,17.5204938 202.497778,17.3683951 C202.383703,17.1782716 202.117531,17.1022222 201.851358,17.1022222 C201.585185,17.1022222 201.319012,17.1782716 201.204938,17.3683951 C201.090864,17.5204938 201.090864,17.748642 201.090864,17.9767901 L201.090864,23.6044444 C201.090864,23.6044444 198.391111,25.011358 194.626666,25.011358 C188.276543,25.011358 183.06716,21.0567901 183.06716,13.2997531 C183.06716,5.01037037 188.999012,2.15851852 194.24642,2.15851852 C196.185679,2.15851852 197.934815,2.53876543 199.189629,3.03308642 C200.862716,3.67950617 201.471111,4.40197531 201.927407,4.40197531 C202.269629,4.40197531 202.611852,3.9837037 202.611852,3.67950617 C202.611852,3.37530864 202.307654,2.99506173 201.280987,2.42469136 C199.379753,1.36 196.984197,0.78962963 194.436543,0.78962963 C188.238518,0.78962963 181.432099,4.21185185 181.432099,13.4898765 C181.432099,22.0834568 187.249876,26.3802469 194.588642,26.3802469 C196.756049,26.3802469 198.657284,26 200.520494,25.3535802 C202.345679,24.7071605 202.611852,24.3649383 202.611852,23.414321 L202.611852,17.9767901 Z M211.444938,6.53135802 C211.444938,3.9837037 213.65037,2.2345679 216.73037,2.2345679 C219.734321,2.2345679 220.913086,3.86962963 221.711605,3.86962963 C222.129876,3.86962963 222.358024,3.45135802 222.358024,3.18518519 C222.358024,2.38666667 219.886419,0.865679012 216.654321,0.865679012 C212.547654,0.865679012 209.92395,3.29925926 209.92395,6.56938272 C209.92395,11.1703704 215.095308,12.8054321 217.909135,14.5545679 C219.772345,15.6953086 221.407407,17.3683951 221.407407,19.9160494 C221.407407,23.1481481 218.821728,25.0874074 215.51358,25.0874074 C211.901234,25.0874074 210.760493,22.7298765 209.885926,22.7298765 C209.543703,22.7298765 209.163456,23.0720988 209.163456,23.4523457 C209.163456,23.8706173 209.771851,24.517037 210.608395,25.0493827 C212.015308,25.9619753 213.764444,26.4562963 215.551605,26.4562963 C219.392098,26.4562963 222.928395,24.1748148 222.928395,19.8780247 C222.928395,16.6459259 220.951111,14.5925926 218.479506,13.1476543 C215.817777,11.588642 211.444938,10.105679 211.444938,6.53135802 L211.444938,6.53135802 Z" id="logs" fill="#FFFFFF" sketch:type="MSShapeGroup"></path>
            </g>
        </g>
    </g>
</svg>