<?xml version="1.0" encoding="UTF-8" standalone="no"?>
<svg width="235px" height="56px" viewBox="0 0 235 56" version="1.1" xmlns="http://www.w3.org/2000/svg" xmlns:xlink="http://www.w3.org/1999/xlink" xmlns:sketch="http://www.bohemiancoding.com/sketch/ns">
    <!-- Generator: Sketch 3.2.1 (9971) - http://www.bohemiancoding.com/sketch -->
    <title>splash_logo_top_new_dark</title>
    <desc>Created with Sketch.</desc>
    <defs></defs>
    <g id="Assets" stroke="none" stroke-width="1" fill="none" fill-rule="evenodd" sketch:type="MSPage">
        <g id="splash_logo_top_new_dark" sketch:type="MSArtboardGroup">
            <g id="fieldlogs-+-Imported-Layers" sketch:type="MSLayerGroup" transform="translate(5.000000, 12.000000)">
                <g id="Imported-Layers" sketch:type="MSShapeGroup">
                    <path d="M14.4628526,15.6882894 C14.4628526,19.3097033 11.7228236,22.2453746 8.34275222,22.2453746 C4.96268082,22.2453746 2.22265188,19.3097033 2.22265188,15.6882894 C2.22265188,12.0664723 4.96268082,9.13080097 8.34275222,9.13080097 C8.57660666,9.13080097 8.80688648,9.1449109 9.03396798,9.17232447 L9.06331737,7.05744779 C8.82626461,7.03567819 8.58582537,7.02439024 8.34275222,7.02439024 C3.73527428,7.02439024 0,11.0257643 0,15.962022 C0,20.9748764 4.05642433,24.2812357 8.34275222,28.8780488 C12.6279513,24.2812357 16.6845638,20.9748764 16.6845638,15.962022 C16.6845638,15.478253 16.6486296,15.0031516 16.579207,14.5399428 L14.3573076,14.4669743 C14.4269184,14.8628586 14.4628526,15.2708371 14.4628526,15.6882894 Z" id="Fill-4" fill="#261C0E"></path>
                    <path d="M11.3758389,0.000227616237 C14.4630255,-0.0190593888 17.5566685,1.18735361 19.9263648,3.62315065 C22.294395,6.05916439 23.4909063,9.26340772 23.5100671,12.4748024 L21.4600653,12.4878049 C21.4463194,9.82143061 20.4526631,7.16134088 18.4847197,5.13923926 C16.5182341,3.11735436 13.9510978,2.11681388 11.3883351,2.13198344 L11.3758389,0.000227616237 Z M11.3871273,6.14563051 C12.9796029,6.13497288 14.5793879,6.68663687 15.8009905,7.99241784 C17.0232089,9.29842084 17.6349106,10.7650444 17.6449675,12.4878049 L19.7181208,12.4738167 C19.7045748,10.1775429 18.8863993,8.13829407 17.2575957,6.39688272 C15.6296131,4.65569341 13.4970189,3.8879905 11.3758389,3.90264473 L11.3871273,5.79881364 L11.3871273,6.14563051 Z M13.2904174,10.7359183 C13.7703168,11.2524251 14.0069631,11.8064197 14.0106309,12.4878049 L15.9261745,12.474766 C15.9209624,11.2598395 15.4935918,10.1723035 14.6386142,9.24969958 C13.7822853,8.32940904 12.4906494,7.7961533 11.3758389,7.80498607 L11.3874214,9.8918332 C12.0113292,9.88783743 12.810132,10.2192013 13.2904174,10.7359183 Z" id="Path" fill="#261C0E"></path>
                    <ellipse id="Oval-1" fill="#DD8B12" cx="8.34228188" cy="15.6097561" rx="3.03355705" ry="3.12195122"></ellipse>
                </g>
                <path d="M39.7887324,18.497561 L47.9034975,18.497561 C48.1310143,18.497561 48.3585311,18.497561 48.5481284,18.3804878 C48.7377257,18.2634146 48.8135646,18.0682927 48.8135646,17.795122 C48.8135646,17.5609756 48.7377257,17.3658537 48.5481284,17.2487805 C48.3585311,17.1317073 48.1310143,17.1317073 47.9034975,17.1317073 L39.7887324,17.1317073 L39.7887324,7.33658537 L49.1548398,7.33658537 C49.3823566,7.33658537 49.6098733,7.33658537 49.7994706,7.2195122 C49.989068,7.10243902 50.0649069,6.90731707 50.0649069,6.63414634 C50.0649069,6.4 49.989068,6.20487805 49.7994706,6.08780488 C49.6098733,5.97073171 49.3823566,5.97073171 49.1548398,5.97073171 L39.0303431,5.97073171 C38.4615512,5.97073171 38.2719539,6.24390244 38.2719539,6.75121951 L38.2719539,30.5560976 C38.2719539,30.7902439 38.2719539,31.0243902 38.3857123,31.1804878 C38.4994706,31.3756098 38.7649069,31.4536585 39.0303431,31.4536585 C39.2957794,31.4536585 39.5612156,31.3756098 39.674974,31.1804878 C39.7887324,31.0243902 39.7887324,30.7902439 39.7887324,30.5560976 L39.7887324,18.497561 Z M58.5588665,6.59512195 C58.5588665,6.36097561 58.5588665,6.12682927 58.4451081,5.97073171 C58.3313497,5.77560976 58.0659135,5.69756098 57.8004772,5.69756098 C57.535041,5.69756098 57.2696047,5.77560976 57.1558464,5.97073171 C57.042088,6.12682927 57.042088,6.36097561 57.042088,6.59512195 L57.042088,30.5560976 C57.042088,30.7902439 57.042088,31.0243902 57.1558464,31.1804878 C57.2696047,31.3756098 57.535041,31.4536585 57.8004772,31.4536585 C58.0659135,31.4536585 58.3313497,31.3756098 58.4451081,31.1804878 C58.5588665,31.0243902 58.5588665,30.7902439 58.5588665,30.5560976 L58.5588665,6.59512195 Z M69.4796717,7.33658537 L78.1253093,7.33658537 C78.3528261,7.33658537 78.5803429,7.33658537 78.7699402,7.2195122 C78.9595375,7.10243902 79.0353764,6.90731707 79.0353764,6.63414634 C79.0353764,6.4 78.9595375,6.20487805 78.7699402,6.08780488 C78.5803429,5.97073171 78.3528261,5.97073171 78.1253093,5.97073171 L68.7212825,5.97073171 C68.1524905,5.97073171 67.9628932,6.24390244 67.9628932,6.75121951 L67.9628932,30.4390244 C67.9628932,30.9463415 68.1524905,31.2195122 68.7212825,31.2195122 L79.4145711,31.2195122 C79.6420878,31.2195122 79.8696046,31.2195122 80.0592019,31.102439 C80.2487992,30.9853659 80.3246382,30.7902439 80.3246382,30.5170732 C80.3246382,30.2829268 80.2487992,30.0878049 80.0592019,29.9707317 C79.8696046,29.8536585 79.6420878,29.8536585 79.4145711,29.8536585 L69.4796717,29.8536585 L69.4796717,18.1073171 L76.7602086,18.1073171 C76.9877254,18.1073171 77.2152422,18.1073171 77.4048395,17.9902439 C77.5944368,17.8731707 77.6702758,17.6780488 77.6702758,17.404878 C77.6702758,17.1707317 77.5944368,16.9756098 77.4048395,16.8585366 C77.2152422,16.7414634 76.9877254,16.7414634 76.7602086,16.7414634 L69.4796717,16.7414634 L69.4796717,7.33658537 Z M89.1977924,29.8536585 L89.1977924,6.59512195 C89.1977924,6.36097561 89.1977924,6.12682927 89.084034,5.97073171 C88.9702756,5.77560976 88.7048394,5.69756098 88.4394031,5.69756098 C88.1739669,5.69756098 87.9085307,5.77560976 87.7947723,5.97073171 C87.6810139,6.12682927 87.6810139,6.36097561 87.6810139,6.59512195 L87.6810139,30.4390244 C87.6810139,30.9463415 87.8706112,31.2195122 88.4394031,31.2195122 L98.5638998,31.2195122 C98.7914166,31.2195122 99.0189333,31.2195122 99.2085307,31.102439 C99.398128,30.9853659 99.4739669,30.7902439 99.4739669,30.5170732 C99.4739669,30.2829268 99.398128,30.0878049 99.2085307,29.9707317 C99.0189333,29.8536585 98.7914166,29.8536585 98.5638998,29.8536585 L89.1977924,29.8536585 Z M126.700141,18.4195122 C126.700141,13.4634146 124.880007,10.1463415 122.149806,8.19512195 C119.533363,6.32195122 116.19645,5.69756098 111.98739,5.69756098 C109.901819,5.69756098 108.043765,5.85365854 106.98202,6.04878049 C106.109873,6.20487805 105.844437,6.43902439 105.844437,7.29756098 L105.844437,29.8926829 C105.844437,30.6341463 105.920275,30.9853659 106.602826,31.1414634 C107.361215,31.3365854 109.333027,31.4536585 111.304839,31.4536585 C114.300477,31.4536585 118.395779,31.1804878 121.694772,28.995122 C124.462893,27.1609756 126.700141,23.9219512 126.700141,18.4195122 L126.700141,18.4195122 Z M107.361215,7.37560976 C107.361215,7.37560976 109.14343,7.06341463 111.911551,7.06341463 C115.855175,7.06341463 118.850812,7.68780488 121.201819,9.48292683 C123.325309,11.1219512 125.069604,13.9707317 125.069604,18.6926829 C125.069604,29.6195122 115.665578,30.0487805 111.646114,30.0487805 C108.953833,30.0487805 107.361215,29.8536585 107.361215,29.8536585 L107.361215,7.37560976 Z" id="FIELD" fill="#261C0E" sketch:type="MSShapeGroup"></path>
                <path d="M139.695302,29.8536585 L139.695302,6.59512195 C139.695302,6.36097561 139.695302,6.12682927 139.581544,5.97073171 C139.467785,5.77560976 139.202349,5.69756098 138.936913,5.69756098 C138.671477,5.69756098 138.40604,5.77560976 138.292282,5.97073171 C138.178523,6.12682927 138.178523,6.36097561 138.178523,6.59512195 L138.178523,30.4390244 C138.178523,30.9463415 138.368121,31.2195122 138.936913,31.2195122 L149.061409,31.2195122 C149.288926,31.2195122 149.516443,31.2195122 149.70604,31.102439 C149.895638,30.9853659 149.971477,30.7902439 149.971477,30.5170732 C149.971477,30.2829268 149.895638,30.0878049 149.70604,29.9707317 C149.516443,29.8536585 149.288926,29.8536585 149.061409,29.8536585 L139.695302,29.8536585 Z M152.701678,18.5756098 C152.701678,26.5365854 157.365772,31.804878 165.025503,31.804878 C172.723154,31.804878 177.463087,26.5365854 177.463087,18.5756098 C177.463087,10.6146341 172.798993,5.26829268 165.139262,5.26829268 C157.441611,5.26829268 152.701678,10.6146341 152.701678,18.5756098 L152.701678,18.5756098 Z M154.332215,18.5756098 C154.332215,11.0439024 158.617114,6.67317073 165.025503,6.67317073 C171.471812,6.67317073 175.83255,11.0439024 175.83255,18.5756098 C175.83255,26.1073171 171.547651,30.4 165.139262,30.4 C158.692953,30.4 154.332215,26.1073171 154.332215,18.5756098 L154.332215,18.5756098 Z M203.892953,22.9853659 C203.892953,22.7512195 203.892953,22.5170732 203.779194,22.3609756 C203.665436,22.1658537 203.4,22.0878049 203.134563,22.0878049 C202.869127,22.0878049 202.603691,22.1658537 202.489933,22.3609756 C202.376174,22.5170732 202.376174,22.7512195 202.376174,22.9853659 L202.376174,28.7609756 C202.376174,28.7609756 199.683892,30.204878 195.929866,30.204878 C189.597315,30.204878 184.402349,26.1463415 184.402349,18.1853659 C184.402349,9.67804878 190.317785,6.75121951 195.550671,6.75121951 C197.484563,6.75121951 199.228859,7.14146341 200.480201,7.64878049 C202.148657,8.31219512 202.755369,9.05365854 203.210402,9.05365854 C203.551678,9.05365854 203.892953,8.62439024 203.892953,8.31219512 C203.892953,8 203.589597,7.6097561 202.565772,7.02439024 C200.669798,5.93170732 198.280872,5.34634146 195.740268,5.34634146 C189.559396,5.34634146 182.771812,8.85853659 182.771812,18.3804878 C182.771812,27.2 188.57349,31.6097561 195.891946,31.6097561 C198.053355,31.6097561 199.949329,31.2195122 201.807382,30.5560976 C203.627517,29.8926829 203.892953,29.5414634 203.892953,28.5658537 L203.892953,22.9853659 Z M211.704362,11.2390244 C211.704362,8.62439024 213.903691,6.82926829 216.975167,6.82926829 C219.970805,6.82926829 221.146308,8.50731707 221.942617,8.50731707 C222.359731,8.50731707 222.587248,8.07804878 222.587248,7.80487805 C222.587248,6.98536585 220.122483,5.42439024 216.899328,5.42439024 C212.804026,5.42439024 210.187583,7.92195122 210.187583,11.2780488 C210.187583,16 215.34463,17.6780488 218.150671,19.4731707 C220.008724,20.6439024 221.639261,22.3609756 221.639261,24.9756098 C221.639261,28.2926829 219.060738,30.2829268 215.761745,30.2829268 C212.159396,30.2829268 211.021812,27.8634146 210.149664,27.8634146 C209.808389,27.8634146 209.429194,28.2146341 209.429194,28.604878 C209.429194,29.0341463 210.035906,29.697561 210.870134,30.2439024 C212.273154,31.1804878 214.017449,31.6878049 215.799664,31.6878049 C219.62953,31.6878049 223.15604,29.3463415 223.15604,24.9365854 C223.15604,21.6195122 221.184228,19.5121951 218.719463,18.0292683 C216.0651,16.4292683 211.704362,14.9073171 211.704362,11.2390244 L211.704362,11.2390244 Z" id="logs" fill="#261C0E" sketch:type="MSShapeGroup"></path>
            </g>
        </g>
    </g>
</svg>