<?xml version="1.0" encoding="UTF-8" standalone="no"?>
<svg width="235px" height="56px" viewBox="0 0 235 56" version="1.1" xmlns="http://www.w3.org/2000/svg" xmlns:xlink="http://www.w3.org/1999/xlink" xmlns:sketch="http://www.bohemiancoding.com/sketch/ns">
    <!-- Generator: Sketch 3.2 (9961) - http://www.bohemiancoding.com/sketch -->
    <title>splash_logo_top_new</title>
    <desc>Created with Sketch.</desc>
    <defs></defs>
    <g id="Assets" stroke="none" stroke-width="1" fill="none" fill-rule="evenodd" sketch:type="MSPage">
        <g id="splash_logo_top_new" sketch:type="MSArtboardGroup">
            <g id="fieldlogs-+-Imported-Layers" sketch:type="MSLayerGroup" transform="translate(5.000000, 13.000000)">
                <g id="Imported-Layers" sketch:type="MSShapeGroup">
                    <path d="M15.0696855,15.7669781 C15.0696855,19.4636308 12.2146904,22.460294 8.69279777,22.460294 C5.17090519,22.460294 2.31591,19.4636308 2.31591,15.7669781 C2.31591,12.0699138 5.17090519,9.07325065 8.69279777,9.07325065 C8.93646428,9.07325065 9.1764062,9.08765372 9.41301559,9.11563685 L9.44359642,6.95682128 C9.19659739,6.93459939 8.9460698,6.92307692 8.69279777,6.92307692 C3.89199907,6.92307692 0,11.007584 0,16.0463978 C0,21.1633997 4.22662396,24.5384523 8.69279777,29.2307692 C13.1577954,24.5384523 17.3846154,21.1633997 17.3846154,16.0463978 C17.3846154,15.552578 17.3471735,15.0676058 17.274838,14.5947733 L14.9597122,14.5202888 C15.0322436,14.924398 15.0696855,15.3408527 15.0696855,15.7669781 Z" id="Fill-4" fill="#FFFFFF"></path>
                    <path d="M12.0936455,0.00022433331 C15.170507,-0.0187844937 18.2538033,1.17022832 20.6155743,3.57089367 C22.9756846,5.9717726 24.1681942,9.12980087 24.187291,12.2948774 L22.1441453,12.3076923 C22.1304455,9.67977536 21.1401124,7.05805231 19.1787507,5.06511562 C17.218842,3.07239252 14.6602914,2.08628291 12.1060999,2.10123368 L12.0936455,0.00022433331 Z M12.1048961,6.05699161 C13.6920457,6.0464877 15.2864802,6.59019499 16.5039973,7.87714258 C17.722128,9.164309 18.3317838,10.6097793 18.3418071,12.3076923 L20.4080268,12.2939059 C20.3945261,10.0307514 19.5790869,8.02091483 17.9557309,6.30461999 C16.333193,4.58854398 14.2077313,3.83191371 12.0936455,3.84635659 L12.1048961,5.71517691 L12.1048961,6.05699161 Z M14.0018207,10.5810734 C14.4801151,11.0901305 14.7159699,11.6361348 14.7196254,12.3076923 L16.6287625,12.2948415 C16.6235679,11.097438 16.1976266,10.0255876 15.3455085,9.11629045 C14.4920436,8.20927333 13.2047275,7.68370878 12.0936455,7.69241416 L12.1051892,9.74916253 C12.7270103,9.74522439 13.5231416,10.0718089 14.0018207,10.5810734 Z" id="Path" fill="#FFFFFF"></path>
                    <ellipse id="Oval-1" fill="#DD8B12" cx="9.07023411" cy="15.3846154" rx="3.02341137" ry="3.07692308"></ellipse>
                </g>
                <path d="M40.9672241,17.8461538 L48.3745819,17.8461538 C48.7525084,17.8461538 49.0548495,17.8461538 49.319398,17.6538462 C49.5461538,17.5 49.6973244,17.1923077 49.6973244,16.7692308 C49.6973244,16.3461538 49.5461538,16.0384615 49.319398,15.8846154 C49.0548495,15.6923077 48.7525084,15.6923077 48.3745819,15.6923077 L40.9672241,15.6923077 L40.9672241,7.03846154 L49.5839465,7.03846154 C49.9618729,7.03846154 50.264214,7.03846154 50.5287625,6.84615385 C50.7555184,6.69230769 50.906689,6.38461538 50.906689,5.96153846 C50.906689,5.53846154 50.7555184,5.23076923 50.5287625,5.07692308 C50.264214,4.88461538 49.9618729,4.88461538 49.5839465,4.88461538 L39.7200669,4.88461538 C38.8886288,4.88461538 38.548495,5.26923077 38.548495,6 L38.548495,28.6153846 C38.548495,29 38.548495,29.3461538 38.7374582,29.6153846 C38.9264214,29.8846154 39.2665552,30 39.7578595,30 C40.2491639,30 40.5892977,29.8846154 40.7782609,29.6153846 C40.9672241,29.3461538 40.9672241,29 40.9672241,28.6153846 L40.9672241,17.8461538 Z M59.7879597,6 C59.7879597,5.61538462 59.7879597,5.26923077 59.5989965,5 C59.4100333,4.73076923 59.0698995,4.61538462 58.5785952,4.61538462 C58.0872908,4.61538462 57.7471571,4.73076923 57.5581938,5 C57.3692306,5.26923077 57.3692306,5.61538462 57.3692306,6 L57.3692306,28.6153846 C57.3692306,29 57.3692306,29.3461538 57.5581938,29.6153846 C57.7471571,29.8846154 58.0872908,30 58.5785952,30 C59.0698995,30 59.4100333,29.8846154 59.5989965,29.6153846 C59.7879597,29.3461538 59.7879597,29 59.7879597,28.6153846 L59.7879597,6 Z M70.936789,7.03846154 L78.9110365,7.03846154 C79.2889629,7.03846154 79.5913041,7.03846154 79.8558526,6.84615385 C80.0826084,6.69230769 80.233779,6.38461538 80.233779,5.96153846 C80.233779,5.53846154 80.0826084,5.23076923 79.8558526,5.07692308 C79.5913041,4.88461538 79.2889629,4.88461538 78.9110365,4.88461538 L69.7274245,4.88461538 C68.8581937,4.88461538 68.5558526,5.23076923 68.5558526,6.07692308 L68.5558526,28.5769231 C68.5558526,29.3846154 68.8581937,29.7692308 69.7274245,29.7692308 L80.0826084,29.7692308 C80.4605349,29.7692308 80.762876,29.7692308 81.0274245,29.5769231 C81.2541803,29.4230769 81.4053509,29.1153846 81.4053509,28.6923077 C81.4053509,28.2692308 81.2541803,27.9615385 81.0274245,27.8076923 C80.762876,27.6153846 80.4605349,27.6153846 80.0826084,27.6153846 L70.936789,27.6153846 L70.936789,17.3461538 L77.5127088,17.3461538 C77.8906352,17.3461538 78.1929763,17.3461538 78.4575248,17.1538462 C78.6842807,17 78.8354512,16.6923077 78.8354512,16.2692308 C78.8354512,15.8461538 78.6842807,15.5384615 78.4575248,15.3846154 C78.1929763,15.1923077 77.8906352,15.1923077 77.5127088,15.1923077 L70.936789,15.1923077 L70.936789,7.03846154 Z M90.7023407,27.6153846 L90.7023407,6 C90.7023407,5.61538462 90.7023407,5.26923077 90.5133775,5 C90.3244143,4.73076923 89.9842805,4.61538462 89.4929762,4.61538462 C89.0016718,4.61538462 88.6615381,4.73076923 88.4725749,5 C88.2836116,5.26923077 88.2836116,5.61538462 88.2836116,6 L88.2836116,28.5769231 C88.2836116,29.3846154 88.5481601,29.7692308 89.4551836,29.7692308 L99.5080264,29.7692308 C99.8859528,29.7692308 100.188294,29.7692308 100.452842,29.5769231 C100.679598,29.4230769 100.830769,29.1153846 100.830769,28.6923077 C100.830769,28.2692308 100.679598,27.9615385 100.452842,27.8076923 C100.188294,27.6153846 99.8859528,27.6153846 99.5080264,27.6153846 L90.7023407,27.6153846 Z M127.776923,17.1538462 C127.776923,12.1923077 125.925083,8.92307692 123.241805,7.03846154 C120.634113,5.19230769 117.308361,4.61538462 113.188963,4.61538462 C111.072575,4.61538462 109.220735,4.76923077 108.162541,4.96153846 C106.990969,5.19230769 106.688628,5.57692308 106.688628,6.65384615 L106.688628,28.0384615 C106.688628,28.8846154 106.802006,29.3846154 107.633444,29.6153846 C108.42709,29.8461538 110.316722,30 112.43311,30 C115.72107,30 119.651504,29.6538462 122.826086,27.5769231 C125.547157,25.8076923 127.776923,22.6153846 127.776923,17.1538462 L127.776923,17.1538462 Z M109.107357,7 C109.107357,7 110.694648,6.73076923 113.188963,6.73076923 C116.779264,6.73076923 119.538127,7.30769231 121.692307,8.96153846 C123.657525,10.4615385 125.282608,13.1153846 125.282608,17.4230769 C125.282608,27.4230769 116.628093,27.8461538 112.886622,27.8461538 C110.543478,27.8461538 109.107357,27.6923077 109.107357,27.6923077 L109.107357,7 Z" id="FIELD" fill="#FFFFFF" sketch:type="MSShapeGroup"></path>
                <path d="M139.832776,28.0769231 L139.832776,5.15384615 C139.832776,4.92307692 139.832776,4.69230769 139.719398,4.53846154 C139.60602,4.34615385 139.341472,4.26923077 139.076923,4.26923077 C138.812375,4.26923077 138.547826,4.34615385 138.434448,4.53846154 C138.32107,4.69230769 138.32107,4.92307692 138.32107,5.15384615 L138.32107,28.6538462 C138.32107,29.1538462 138.510033,29.4230769 139.076923,29.4230769 L149.167559,29.4230769 C149.394314,29.4230769 149.62107,29.4230769 149.810033,29.3076923 C149.998997,29.1923077 150.074582,29 150.074582,28.7307692 C150.074582,28.5 149.998997,28.3076923 149.810033,28.1923077 C149.62107,28.0769231 149.394314,28.0769231 149.167559,28.0769231 L139.832776,28.0769231 Z M152.795652,16.9615385 C152.795652,24.8076923 157.444147,30 165.078261,30 C172.750167,30 177.474247,24.8076923 177.474247,16.9615385 C177.474247,9.11538462 172.825752,3.84615385 165.191639,3.84615385 C157.519732,3.84615385 152.795652,9.11538462 152.795652,16.9615385 L152.795652,16.9615385 Z M154.420736,16.9615385 C154.420736,9.53846154 158.691304,5.23076923 165.078261,5.23076923 C171.50301,5.23076923 175.849164,9.53846154 175.849164,16.9615385 C175.849164,24.3846154 171.578595,28.6153846 165.191639,28.6153846 C158.76689,28.6153846 154.420736,24.3846154 154.420736,16.9615385 L154.420736,16.9615385 Z M203.815719,21.3076923 C203.815719,21.0769231 203.815719,20.8461538 203.702341,20.6923077 C203.588963,20.5 203.324414,20.4230769 203.059866,20.4230769 C202.795317,20.4230769 202.530769,20.5 202.417391,20.6923077 C202.304013,20.8461538 202.304013,21.0769231 202.304013,21.3076923 L202.304013,27 C202.304013,27 199.620736,28.4230769 195.879264,28.4230769 C189.567893,28.4230769 184.390301,24.4230769 184.390301,16.5769231 C184.390301,8.19230769 190.285953,5.30769231 195.501338,5.30769231 C197.428762,5.30769231 199.167224,5.69230769 200.414381,6.19230769 C202.077257,6.84615385 202.68194,7.57692308 203.135451,7.57692308 C203.475585,7.57692308 203.815719,7.15384615 203.815719,6.84615385 C203.815719,6.53846154 203.513378,6.15384615 202.492976,5.57692308 C200.603344,4.5 198.222408,3.92307692 195.690301,3.92307692 C189.5301,3.92307692 182.765217,7.38461538 182.765217,16.7692308 C182.765217,25.4615385 188.547491,29.8076923 195.841471,29.8076923 C197.995652,29.8076923 199.885284,29.4230769 201.737123,28.7692308 C203.55117,28.1153846 203.815719,27.7692308 203.815719,26.8076923 L203.815719,21.3076923 Z M211.601003,9.73076923 C211.601003,7.15384615 213.792976,5.38461538 216.85418,5.38461538 C219.839799,5.38461538 221.011371,7.03846154 221.805016,7.03846154 C222.220735,7.03846154 222.447491,6.61538462 222.447491,6.34615385 C222.447491,5.53846154 219.99097,4 216.778595,4 C212.69699,4 210.089297,6.46153846 210.089297,9.76923077 C210.089297,14.4230769 215.229097,16.0769231 218.025752,17.8461538 C219.877592,19 221.502675,20.6923077 221.502675,23.2692308 C221.502675,26.5384615 218.932776,28.5 215.644816,28.5 C212.054515,28.5 210.920735,26.1153846 210.051505,26.1153846 C209.711371,26.1153846 209.333444,26.4615385 209.333444,26.8461538 C209.333444,27.2692308 209.938127,27.9230769 210.769565,28.4615385 C212.167893,29.3846154 213.906354,29.8846154 215.682608,29.8846154 C219.499665,29.8846154 223.014381,27.5769231 223.014381,23.2307692 C223.014381,19.9615385 221.049163,17.8846154 218.592642,16.4230769 C215.947157,14.8461538 211.601003,13.3461538 211.601003,9.73076923 L211.601003,9.73076923 Z" id="logs" fill="#FFFFFF" sketch:type="MSShapeGroup"></path>
            </g>
        </g>
    </g>
</svg>